<svg xmlns="http://www.w3.org/2000/svg" xmlns:xlink="http://www.w3.org/1999/xlink" width="500" zoomAndPan="magnify" viewBox="0 0 375 374.999991" height="500" preserveAspectRatio="xMidYMid meet" version="1.0"><defs><g/></defs><g fill="#ffffff" fill-opacity="1"><g transform="translate(157.331875, 204.521221)"><g><path d="M 28.296875 -0.65625 C 28.390625 -0.65625 28.53125 -0.710938 28.71875 -0.828125 C 28.914062 -0.953125 29.097656 -1.207031 29.265625 -1.59375 C 29.441406 -1.976562 29.601562 -2.53125 29.75 -3.25 C 29.894531 -3.976562 29.96875 -4.945312 29.96875 -6.15625 C 29.820312 -8.46875 29.625 -10.925781 29.375 -13.53125 C 29.132812 -16.132812 28.785156 -18.628906 28.328125 -21.015625 C 27.867188 -23.410156 27.242188 -25.597656 26.453125 -27.578125 C 25.660156 -29.554688 24.613281 -31.097656 23.3125 -32.203125 C 22.050781 -33.265625 20.695312 -33.75 19.25 -33.65625 C 17.800781 -33.507812 16.425781 -32.859375 15.125 -31.703125 C 14.59375 -31.210938 14.132812 -30.726562 13.75 -30.25 C 12.882812 -29.09375 12.125 -27.789062 11.46875 -26.34375 C 10.820312 -24.894531 10.28125 -23.410156 9.84375 -21.890625 C 9.40625 -20.367188 9.085938 -18.820312 8.890625 -17.25 C 8.703125 -15.6875 8.609375 -14.179688 8.609375 -12.734375 L 8.609375 -6.21875 C 8.609375 -5.019531 8.664062 -4.054688 8.78125 -3.328125 C 8.90625 -2.609375 9.0625 -2.039062 9.25 -1.625 C 9.445312 -1.21875 9.640625 -0.953125 9.828125 -0.828125 C 10.023438 -0.710938 10.175781 -0.65625 10.28125 -0.65625 L 10.28125 0 L 1.875 0 L 1.875 -0.65625 C 1.976562 -0.65625 2.125 -0.710938 2.3125 -0.828125 C 2.507812 -0.953125 2.691406 -1.21875 2.859375 -1.625 C 3.023438 -2.039062 3.179688 -2.609375 3.328125 -3.328125 C 3.472656 -4.054688 3.546875 -5.019531 3.546875 -6.21875 L 3.546875 -46.03125 C 3.398438 -47.28125 3.15625 -48.097656 2.8125 -48.484375 C 2.476562 -48.867188 2.21875 -49.0625 2.03125 -49.0625 L 1.8125 -49.71875 L 8.609375 -52.25 L 8.609375 -18.96875 C 8.992188 -21.46875 9.597656 -23.695312 10.421875 -25.65625 C 11.242188 -27.613281 12.207031 -29.242188 13.3125 -30.546875 C 14.425781 -32.085938 15.742188 -33.253906 17.265625 -34.046875 C 18.785156 -34.847656 20.507812 -35.128906 22.4375 -34.890625 C 24.945312 -34.503906 26.9375 -33.550781 28.40625 -32.03125 C 29.875 -30.507812 31.019531 -28.660156 31.84375 -26.484375 C 32.375 -25.085938 32.820312 -23.492188 33.1875 -21.703125 C 33.550781 -19.921875 33.851562 -18.050781 34.09375 -16.09375 C 34.332031 -14.144531 34.523438 -12.171875 34.671875 -10.171875 C 34.816406 -8.171875 34.9375 -6.253906 35.03125 -4.421875 C 35.269531 -2.828125 35.546875 -1.800781 35.859375 -1.34375 C 36.171875 -0.882812 36.425781 -0.65625 36.625 -0.65625 L 36.625 0 L 28.296875 0 Z M 28.296875 -0.65625 "/></g></g></g><g fill="#ffffff" fill-opacity="1"><g transform="translate(194.532453, 204.521221)"><g><path d="M 1.8125 -32.28125 L 8.609375 -34.890625 L 8.609375 -6.21875 C 8.609375 -5.019531 8.664062 -4.054688 8.78125 -3.328125 C 8.90625 -2.609375 9.0625 -2.039062 9.25 -1.625 C 9.445312 -1.21875 9.640625 -0.953125 9.828125 -0.828125 C 10.023438 -0.710938 10.175781 -0.65625 10.28125 -0.65625 L 10.28125 0 L 1.875 0 L 1.875 -0.65625 C 2.019531 -0.65625 2.1875 -0.710938 2.375 -0.828125 C 2.570312 -0.953125 2.753906 -1.21875 2.921875 -1.625 C 3.097656 -2.039062 3.257812 -2.609375 3.40625 -3.328125 C 3.550781 -4.054688 3.625 -5.019531 3.625 -6.21875 L 3.625 -28.59375 C 3.425781 -29.894531 3.15625 -30.738281 2.8125 -31.125 C 2.476562 -31.507812 2.21875 -31.703125 2.03125 -31.703125 Z M 5.578125 -40.75 C 4.609375 -40.75 3.796875 -41.070312 3.140625 -41.71875 C 2.492188 -42.375 2.171875 -43.1875 2.171875 -44.15625 C 2.171875 -45.113281 2.492188 -45.914062 3.140625 -46.5625 C 3.796875 -47.21875 4.609375 -47.546875 5.578125 -47.546875 C 6.535156 -47.546875 7.335938 -47.21875 7.984375 -46.5625 C 8.640625 -45.914062 8.96875 -45.113281 8.96875 -44.15625 C 8.96875 -43.1875 8.640625 -42.375 7.984375 -41.71875 C 7.335938 -41.070312 6.535156 -40.75 5.578125 -40.75 Z M 5.578125 -40.75 "/></g></g></g><g fill="#ffffff" fill-opacity="1"><g transform="translate(205.388561, 204.521221)"><g><path d="M 32.71875 -24.609375 C 31.988281 -26.296875 31.007812 -27.847656 29.78125 -29.265625 C 28.550781 -30.691406 27.175781 -31.851562 25.65625 -32.75 C 24.132812 -33.644531 22.46875 -34.222656 20.65625 -34.484375 C 18.851562 -34.753906 17.007812 -34.570312 15.125 -33.9375 C 13.101562 -33.40625 11.472656 -32.40625 10.234375 -30.9375 C 9.003906 -29.46875 8.097656 -27.78125 7.515625 -25.875 C 6.941406 -23.96875 6.664062 -21.976562 6.6875 -19.90625 C 6.71875 -17.832031 6.945312 -15.898438 7.375 -14.109375 L 7.59375 -13.46875 C 8.46875 -10.570312 9.664062 -8.226562 11.1875 -6.4375 C 12.707031 -4.65625 14.382812 -3.34375 16.21875 -2.5 C 18.050781 -1.65625 19.929688 -1.234375 21.859375 -1.234375 C 23.785156 -1.234375 25.59375 -1.582031 27.28125 -2.28125 C 28.96875 -2.976562 30.414062 -3.976562 31.625 -5.28125 C 32.832031 -6.582031 33.628906 -8.101562 34.015625 -9.84375 L 34.515625 -9.84375 C 34.085938 -7.675781 33.113281 -5.832031 31.59375 -4.3125 C 30.070312 -2.789062 28.25 -1.640625 26.125 -0.859375 C 24 -0.0859375 21.71875 0.28125 19.28125 0.25 C 16.851562 0.226562 14.523438 -0.257812 12.296875 -1.21875 C 10.078125 -2.1875 8.078125 -3.613281 6.296875 -5.5 C 4.515625 -7.382812 3.234375 -9.820312 2.453125 -12.8125 C 1.828125 -15.175781 1.679688 -17.515625 2.015625 -19.828125 C 2.359375 -22.148438 3.097656 -24.285156 4.234375 -26.234375 C 5.367188 -28.191406 6.863281 -29.894531 8.71875 -31.34375 C 10.570312 -32.789062 12.679688 -33.828125 15.046875 -34.453125 C 17.273438 -35.023438 19.4375 -35.226562 21.53125 -35.0625 C 23.632812 -34.894531 25.550781 -34.554688 27.28125 -34.046875 C 29.019531 -33.546875 30.492188 -32.992188 31.703125 -32.390625 C 32.910156 -31.785156 33.707031 -31.363281 34.09375 -31.125 L 34.375 -31.125 L 33.359375 -24.46875 Z M 32.71875 -24.609375 "/></g></g></g><g fill="#ffffff" fill-opacity="1"><g transform="translate(103.18086, 203.97386)"><g><path d="M 3.109375 -18.890625 C 2.191406 -22.316406 1.972656 -25.71875 2.453125 -29.09375 C 2.941406 -32.46875 4.003906 -35.578125 5.640625 -38.421875 C 7.285156 -41.273438 9.445312 -43.75 12.125 -45.84375 C 14.800781 -47.945312 17.851562 -49.457031 21.28125 -50.375 C 23.738281 -51.050781 26.195312 -51.335938 28.65625 -51.234375 C 31.125 -51.140625 33.488281 -50.726562 35.75 -50 C 38.019531 -49.28125 40.15625 -48.253906 42.15625 -46.921875 C 44.15625 -45.597656 45.929688 -44.019531 47.484375 -42.1875 L 45.8125 -35.828125 L 45.15625 -35.828125 C 44.050781 -38.046875 42.675781 -40.15625 41.03125 -42.15625 C 39.394531 -44.15625 37.5625 -45.832031 35.53125 -47.1875 C 33.507812 -48.539062 31.300781 -49.484375 28.90625 -50.015625 C 26.519531 -50.546875 24.023438 -50.472656 21.421875 -49.796875 C 18.285156 -48.972656 15.703125 -47.5 13.671875 -45.375 C 11.648438 -43.25 10.109375 -40.800781 9.046875 -38.03125 C 7.984375 -35.257812 7.390625 -32.304688 7.265625 -29.171875 C 7.148438 -26.035156 7.476562 -23.066406 8.25 -20.265625 C 9.3125 -16.210938 11 -12.832031 13.3125 -10.125 C 15.632812 -7.425781 18.226562 -5.375 21.09375 -3.96875 C 23.96875 -2.570312 26.957031 -1.8125 30.0625 -1.6875 C 33.175781 -1.570312 36.109375 -2.09375 38.859375 -3.25 C 41.609375 -4.414062 44.007812 -6.191406 46.0625 -8.578125 C 48.113281 -10.960938 49.503906 -13.941406 50.234375 -17.515625 L 50.8125 -17.375 C 50.039062 -13.457031 48.484375 -10.1875 46.140625 -7.5625 C 43.796875 -4.9375 41.039062 -2.984375 37.875 -1.703125 C 34.71875 -0.421875 31.34375 0.191406 27.75 0.140625 C 24.15625 0.0976562 20.71875 -0.632812 17.4375 -2.0625 C 14.15625 -3.488281 11.222656 -5.597656 8.640625 -8.390625 C 6.066406 -11.191406 4.222656 -14.691406 3.109375 -18.890625 Z M 3.109375 -18.890625 "/></g></g></g><g fill="#ffffff" fill-opacity="1"><g transform="translate(167.650234, 140.209517)"><g><path d="M 1.78125 -8.3125 C 1.75 -8.3125 1.71875 -8.300781 1.6875 -8.28125 C 1.65625 -8.257812 1.625 -8.210938 1.59375 -8.140625 C 1.570312 -8.078125 1.546875 -7.984375 1.515625 -7.859375 C 1.492188 -7.742188 1.484375 -7.585938 1.484375 -7.390625 L 1.484375 -1.03125 C 1.484375 -0.84375 1.492188 -0.6875 1.515625 -0.5625 C 1.546875 -0.4375 1.570312 -0.34375 1.59375 -0.28125 C 1.625 -0.21875 1.65625 -0.171875 1.6875 -0.140625 C 1.71875 -0.117188 1.75 -0.109375 1.78125 -0.109375 L 1.78125 0 L 0.359375 0 L 0.359375 -0.109375 C 0.378906 -0.109375 0.40625 -0.117188 0.4375 -0.140625 C 0.46875 -0.171875 0.492188 -0.21875 0.515625 -0.28125 C 0.546875 -0.34375 0.570312 -0.4375 0.59375 -0.5625 C 0.625 -0.6875 0.640625 -0.84375 0.640625 -1.03125 L 0.640625 -7.390625 C 0.640625 -7.585938 0.625 -7.742188 0.59375 -7.859375 C 0.570312 -7.984375 0.546875 -8.078125 0.515625 -8.140625 C 0.492188 -8.210938 0.46875 -8.257812 0.4375 -8.28125 C 0.40625 -8.300781 0.378906 -8.3125 0.359375 -8.3125 L 0.359375 -8.421875 L 1.78125 -8.421875 Z M 1.78125 -8.3125 "/></g></g></g><g fill="#ffffff" fill-opacity="1"><g transform="translate(170.182239, 140.209517)"><g><path d="M 0.609375 -7.453125 L 0.359375 -7.453125 L 0.359375 -8.5625 L 0.609375 -8.5625 Z M 0.609375 -7.453125 "/></g></g></g><g fill="#ffffff" fill-opacity="1"><g transform="translate(171.550243, 140.209517)"><g><path d="M 8.8125 -3.546875 L 8.8125 -1.03125 C 8.8125 -0.832031 8.820312 -0.671875 8.84375 -0.546875 C 8.863281 -0.429688 8.890625 -0.335938 8.921875 -0.265625 C 8.953125 -0.203125 8.984375 -0.160156 9.015625 -0.140625 C 9.054688 -0.117188 9.082031 -0.109375 9.09375 -0.109375 L 9.09375 0 L 7.703125 0 L 7.703125 -0.109375 C 7.722656 -0.109375 7.75 -0.117188 7.78125 -0.140625 C 7.8125 -0.160156 7.835938 -0.203125 7.859375 -0.265625 C 7.890625 -0.335938 7.914062 -0.429688 7.9375 -0.546875 C 7.96875 -0.671875 7.984375 -0.832031 7.984375 -1.03125 L 7.984375 -3.546875 C 7.984375 -3.691406 7.972656 -3.863281 7.953125 -4.0625 C 7.941406 -4.269531 7.910156 -4.472656 7.859375 -4.671875 C 7.804688 -4.867188 7.726562 -5.046875 7.625 -5.203125 C 7.519531 -5.367188 7.382812 -5.476562 7.21875 -5.53125 C 7.050781 -5.582031 6.882812 -5.578125 6.71875 -5.515625 C 6.5625 -5.460938 6.414062 -5.375 6.28125 -5.25 C 6.15625 -5.132812 6.039062 -5 5.9375 -4.84375 C 5.832031 -4.695312 5.75 -4.554688 5.6875 -4.421875 C 5.507812 -4.035156 5.367188 -3.5625 5.265625 -3 C 5.160156 -2.445312 5.109375 -1.789062 5.109375 -1.03125 C 5.109375 -0.832031 5.117188 -0.671875 5.140625 -0.546875 C 5.160156 -0.429688 5.1875 -0.335938 5.21875 -0.265625 C 5.25 -0.203125 5.28125 -0.160156 5.3125 -0.140625 C 5.34375 -0.117188 5.367188 -0.109375 5.390625 -0.109375 L 5.390625 0 L 4 0 L 4 -0.109375 C 4.007812 -0.109375 4.03125 -0.117188 4.0625 -0.140625 C 4.09375 -0.160156 4.125 -0.203125 4.15625 -0.265625 C 4.1875 -0.335938 4.210938 -0.429688 4.234375 -0.546875 C 4.253906 -0.671875 4.265625 -0.832031 4.265625 -1.03125 L 4.265625 -3.546875 C 4.265625 -3.691406 4.253906 -3.863281 4.234375 -4.0625 C 4.222656 -4.269531 4.191406 -4.472656 4.140625 -4.671875 C 4.085938 -4.867188 4.007812 -5.046875 3.90625 -5.203125 C 3.8125 -5.367188 3.679688 -5.476562 3.515625 -5.53125 C 3.347656 -5.582031 3.179688 -5.578125 3.015625 -5.515625 C 2.859375 -5.460938 2.710938 -5.375 2.578125 -5.25 C 2.453125 -5.132812 2.335938 -5 2.234375 -4.84375 C 2.128906 -4.695312 2.046875 -4.554688 1.984375 -4.421875 C 1.804688 -4.035156 1.664062 -3.5625 1.5625 -3 C 1.457031 -2.445312 1.40625 -1.789062 1.40625 -1.03125 C 1.40625 -0.832031 1.414062 -0.671875 1.4375 -0.546875 C 1.457031 -0.429688 1.484375 -0.335938 1.515625 -0.265625 C 1.546875 -0.203125 1.578125 -0.160156 1.609375 -0.140625 C 1.640625 -0.117188 1.664062 -0.109375 1.6875 -0.109375 L 1.6875 0 L 0.296875 0 L 0.296875 -0.109375 C 0.316406 -0.109375 0.34375 -0.117188 0.375 -0.140625 C 0.40625 -0.160156 0.429688 -0.203125 0.453125 -0.265625 C 0.484375 -0.335938 0.507812 -0.429688 0.53125 -0.546875 C 0.5625 -0.671875 0.578125 -0.832031 0.578125 -1.03125 L 0.578125 -4.75 C 0.578125 -4.945312 0.5625 -5.101562 0.53125 -5.21875 C 0.507812 -5.34375 0.484375 -5.4375 0.453125 -5.5 C 0.429688 -5.570312 0.40625 -5.617188 0.375 -5.640625 C 0.34375 -5.660156 0.316406 -5.671875 0.296875 -5.671875 L 0.296875 -5.78125 L 1.40625 -5.78125 L 1.40625 -2.671875 C 1.457031 -3.046875 1.523438 -3.378906 1.609375 -3.671875 C 1.691406 -3.960938 1.785156 -4.226562 1.890625 -4.46875 C 1.960938 -4.632812 2.050781 -4.796875 2.15625 -4.953125 C 2.257812 -5.117188 2.378906 -5.265625 2.515625 -5.390625 C 2.660156 -5.523438 2.816406 -5.628906 2.984375 -5.703125 C 3.148438 -5.785156 3.332031 -5.828125 3.53125 -5.828125 C 3.851562 -5.828125 4.117188 -5.757812 4.328125 -5.625 C 4.535156 -5.488281 4.695312 -5.3125 4.8125 -5.09375 C 4.925781 -4.882812 5.003906 -4.640625 5.046875 -4.359375 C 5.085938 -4.085938 5.109375 -3.816406 5.109375 -3.546875 L 5.109375 -2.671875 C 5.160156 -3.046875 5.222656 -3.378906 5.296875 -3.671875 C 5.378906 -3.960938 5.476562 -4.226562 5.59375 -4.46875 C 5.664062 -4.632812 5.753906 -4.796875 5.859375 -4.953125 C 5.972656 -5.117188 6.097656 -5.265625 6.234375 -5.390625 C 6.367188 -5.523438 6.519531 -5.628906 6.6875 -5.703125 C 6.851562 -5.785156 7.035156 -5.828125 7.234375 -5.828125 C 7.566406 -5.828125 7.832031 -5.757812 8.03125 -5.625 C 8.238281 -5.488281 8.398438 -5.3125 8.515625 -5.09375 C 8.628906 -4.882812 8.707031 -4.640625 8.75 -4.359375 C 8.789062 -4.085938 8.8125 -3.816406 8.8125 -3.546875 Z M 8.8125 -3.546875 "/></g></g></g></svg>