<svg xmlns="http://www.w3.org/2000/svg" xmlns:xlink="http://www.w3.org/1999/xlink" width="500" zoomAndPan="magnify" viewBox="0 0 375 374.999991" height="500" preserveAspectRatio="xMidYMid meet" version="1.0"><defs><g/></defs><g fill="#fa8fb1" fill-opacity="1"><g transform="translate(171.640628, 150.316514)"><g><path d="M 4.890625 -22.875 C 4.816406 -22.875 4.734375 -22.835938 4.640625 -22.765625 C 4.554688 -22.703125 4.476562 -22.582031 4.40625 -22.40625 C 4.332031 -22.226562 4.257812 -21.972656 4.1875 -21.640625 C 4.125 -21.316406 4.09375 -20.878906 4.09375 -20.328125 L 4.09375 -2.84375 C 4.09375 -2.3125 4.125 -1.875 4.1875 -1.53125 C 4.257812 -1.1875 4.332031 -0.925781 4.40625 -0.75 C 4.476562 -0.582031 4.554688 -0.460938 4.640625 -0.390625 C 4.734375 -0.328125 4.816406 -0.296875 4.890625 -0.296875 L 4.890625 0 L 0.984375 0 L 0.984375 -0.296875 C 1.035156 -0.296875 1.101562 -0.328125 1.1875 -0.390625 C 1.269531 -0.460938 1.347656 -0.582031 1.421875 -0.75 C 1.503906 -0.925781 1.578125 -1.1875 1.640625 -1.53125 C 1.710938 -1.875 1.75 -2.3125 1.75 -2.84375 L 1.75 -20.328125 C 1.75 -20.878906 1.710938 -21.316406 1.640625 -21.640625 C 1.578125 -21.972656 1.503906 -22.226562 1.421875 -22.40625 C 1.347656 -22.582031 1.269531 -22.703125 1.1875 -22.765625 C 1.101562 -22.835938 1.035156 -22.875 0.984375 -22.875 L 0.984375 -23.171875 L 4.890625 -23.171875 Z M 4.890625 -22.875 "/></g></g></g><g fill="#fa8fb1" fill-opacity="1"><g transform="translate(177.514616, 150.316514)"><g><path d="M 24.25 -9.765625 L 24.25 -2.84375 C 24.25 -2.289062 24.273438 -1.847656 24.328125 -1.515625 C 24.390625 -1.179688 24.460938 -0.921875 24.546875 -0.734375 C 24.640625 -0.554688 24.726562 -0.4375 24.8125 -0.375 C 24.90625 -0.320312 24.972656 -0.296875 25.015625 -0.296875 L 25.015625 0 L 21.1875 0 L 21.1875 -0.296875 C 21.226562 -0.296875 21.289062 -0.320312 21.375 -0.375 C 21.46875 -0.4375 21.550781 -0.554688 21.625 -0.734375 C 21.707031 -0.921875 21.78125 -1.179688 21.84375 -1.515625 C 21.90625 -1.847656 21.9375 -2.289062 21.9375 -2.84375 L 21.9375 -9.765625 C 21.9375 -10.160156 21.914062 -10.640625 21.875 -11.203125 C 21.832031 -11.765625 21.738281 -12.3125 21.59375 -12.84375 C 21.457031 -13.382812 21.25 -13.875 20.96875 -14.3125 C 20.695312 -14.757812 20.328125 -15.0625 19.859375 -15.21875 C 19.398438 -15.363281 18.953125 -15.351562 18.515625 -15.1875 C 18.078125 -15.03125 17.675781 -14.785156 17.3125 -14.453125 C 16.945312 -14.117188 16.617188 -13.742188 16.328125 -13.328125 C 16.046875 -12.910156 15.816406 -12.515625 15.640625 -12.140625 C 15.160156 -11.085938 14.773438 -9.796875 14.484375 -8.265625 C 14.203125 -6.734375 14.0625 -4.925781 14.0625 -2.84375 C 14.0625 -2.289062 14.085938 -1.847656 14.140625 -1.515625 C 14.191406 -1.179688 14.257812 -0.921875 14.34375 -0.734375 C 14.4375 -0.554688 14.523438 -0.4375 14.609375 -0.375 C 14.703125 -0.320312 14.769531 -0.296875 14.8125 -0.296875 L 14.8125 0 L 10.984375 0 L 10.984375 -0.296875 C 11.035156 -0.296875 11.101562 -0.320312 11.1875 -0.375 C 11.269531 -0.4375 11.347656 -0.554688 11.421875 -0.734375 C 11.503906 -0.921875 11.578125 -1.179688 11.640625 -1.515625 C 11.710938 -1.847656 11.75 -2.289062 11.75 -2.84375 L 11.75 -9.765625 C 11.75 -10.160156 11.722656 -10.640625 11.671875 -11.203125 C 11.628906 -11.765625 11.535156 -12.3125 11.390625 -12.84375 C 11.253906 -13.382812 11.046875 -13.875 10.765625 -14.3125 C 10.492188 -14.757812 10.128906 -15.0625 9.671875 -15.21875 C 9.203125 -15.363281 8.75 -15.351562 8.3125 -15.1875 C 7.875 -15.03125 7.472656 -14.785156 7.109375 -14.453125 C 6.742188 -14.117188 6.414062 -13.742188 6.125 -13.328125 C 5.84375 -12.910156 5.613281 -12.515625 5.4375 -12.140625 C 4.957031 -11.085938 4.570312 -9.796875 4.28125 -8.265625 C 4 -6.734375 3.859375 -4.925781 3.859375 -2.84375 C 3.859375 -2.289062 3.882812 -1.847656 3.9375 -1.515625 C 4 -1.179688 4.070312 -0.921875 4.15625 -0.734375 C 4.25 -0.554688 4.335938 -0.4375 4.421875 -0.375 C 4.503906 -0.320312 4.570312 -0.296875 4.625 -0.296875 L 4.625 0 L 0.828125 0 L 0.828125 -0.296875 C 0.867188 -0.296875 0.929688 -0.320312 1.015625 -0.375 C 1.109375 -0.4375 1.191406 -0.554688 1.265625 -0.734375 C 1.347656 -0.921875 1.421875 -1.179688 1.484375 -1.515625 C 1.546875 -1.847656 1.578125 -2.289062 1.578125 -2.84375 L 1.578125 -13.0625 C 1.578125 -13.59375 1.546875 -14.03125 1.484375 -14.375 C 1.421875 -14.71875 1.347656 -14.972656 1.265625 -15.140625 C 1.191406 -15.316406 1.109375 -15.4375 1.015625 -15.5 C 0.929688 -15.570312 0.867188 -15.609375 0.828125 -15.609375 L 0.828125 -15.90625 L 3.859375 -15.90625 L 3.859375 -7.359375 C 4.015625 -8.367188 4.203125 -9.28125 4.421875 -10.09375 C 4.640625 -10.90625 4.894531 -11.632812 5.1875 -12.28125 C 5.40625 -12.738281 5.65625 -13.1875 5.9375 -13.625 C 6.226562 -14.0625 6.566406 -14.460938 6.953125 -14.828125 C 7.335938 -15.191406 7.753906 -15.484375 8.203125 -15.703125 C 8.648438 -15.921875 9.148438 -16.03125 9.703125 -16.03125 C 10.609375 -16.03125 11.34375 -15.84375 11.90625 -15.46875 C 12.476562 -15.101562 12.925781 -14.625 13.25 -14.03125 C 13.570312 -13.4375 13.785156 -12.765625 13.890625 -12.015625 C 14.003906 -11.265625 14.0625 -10.515625 14.0625 -9.765625 L 14.0625 -7.359375 C 14.1875 -8.367188 14.359375 -9.28125 14.578125 -10.09375 C 14.804688 -10.90625 15.070312 -11.632812 15.375 -12.28125 C 15.570312 -12.738281 15.816406 -13.1875 16.109375 -13.625 C 16.410156 -14.0625 16.75 -14.460938 17.125 -14.828125 C 17.5 -15.191406 17.914062 -15.484375 18.375 -15.703125 C 18.84375 -15.921875 19.351562 -16.03125 19.90625 -16.03125 C 20.800781 -16.03125 21.53125 -15.84375 22.09375 -15.46875 C 22.65625 -15.101562 23.09375 -14.625 23.40625 -14.03125 C 23.726562 -13.4375 23.945312 -12.765625 24.0625 -12.015625 C 24.1875 -11.265625 24.25 -10.515625 24.25 -9.765625 Z M 24.25 -9.765625 "/></g></g></g><g fill="#fa8fb1" fill-opacity="1"><g transform="translate(118.917961, 221.666573)"><g><path d="M 3.046875 -18.53125 C 2.148438 -21.894531 1.9375 -25.234375 2.40625 -28.546875 C 2.882812 -31.859375 3.925781 -34.910156 5.53125 -37.703125 C 7.144531 -40.492188 9.265625 -42.914062 11.890625 -44.96875 C 14.515625 -47.03125 17.507812 -48.515625 20.875 -49.421875 C 23.289062 -50.078125 25.703125 -50.359375 28.109375 -50.265625 C 30.523438 -50.171875 32.84375 -49.769531 35.0625 -49.0625 C 37.289062 -48.351562 39.382812 -47.347656 41.34375 -46.046875 C 43.3125 -44.742188 45.054688 -43.191406 46.578125 -41.390625 L 44.9375 -35.140625 L 44.296875 -35.140625 C 43.210938 -37.316406 41.863281 -39.382812 40.25 -41.34375 C 38.644531 -43.3125 36.847656 -44.957031 34.859375 -46.28125 C 32.867188 -47.613281 30.703125 -48.539062 28.359375 -49.0625 C 26.015625 -49.582031 23.566406 -49.507812 21.015625 -48.84375 C 17.941406 -48.039062 15.410156 -46.597656 13.421875 -44.515625 C 11.429688 -42.429688 9.914062 -40.03125 8.875 -37.3125 C 7.832031 -34.59375 7.25 -31.691406 7.125 -28.609375 C 7.007812 -25.535156 7.332031 -22.625 8.09375 -19.875 C 9.132812 -15.90625 10.789062 -12.59375 13.0625 -9.9375 C 15.332031 -7.289062 17.875 -5.28125 20.6875 -3.90625 C 23.507812 -2.53125 26.445312 -1.78125 29.5 -1.65625 C 32.550781 -1.539062 35.425781 -2.050781 38.125 -3.1875 C 40.820312 -4.332031 43.175781 -6.070312 45.1875 -8.40625 C 47.195312 -10.75 48.5625 -13.675781 49.28125 -17.1875 L 49.84375 -17.046875 C 49.082031 -13.203125 47.550781 -9.988281 45.25 -7.40625 C 42.957031 -4.832031 40.257812 -2.914062 37.15625 -1.65625 C 34.0625 -0.40625 30.75 0.191406 27.21875 0.140625 C 23.695312 0.0976562 20.328125 -0.617188 17.109375 -2.015625 C 13.890625 -3.421875 11.015625 -5.492188 8.484375 -8.234375 C 5.953125 -10.984375 4.140625 -14.414062 3.046875 -18.53125 Z M 3.046875 -18.53125 "/></g></g></g><g fill="#fa8fb1" fill-opacity="1"><g transform="translate(170.884229, 221.666573)"><g><path d="M 27.765625 -0.640625 C 27.859375 -0.640625 28 -0.695312 28.1875 -0.8125 C 28.375 -0.9375 28.550781 -1.1875 28.71875 -1.5625 C 28.882812 -1.9375 29.035156 -2.476562 29.171875 -3.1875 C 29.316406 -3.90625 29.390625 -4.851562 29.390625 -6.03125 C 29.253906 -8.300781 29.066406 -10.710938 28.828125 -13.265625 C 28.585938 -15.828125 28.242188 -18.28125 27.796875 -20.625 C 27.347656 -22.96875 26.734375 -25.109375 25.953125 -27.046875 C 25.171875 -28.992188 24.140625 -30.507812 22.859375 -31.59375 C 21.628906 -32.632812 20.304688 -33.109375 18.890625 -33.015625 C 17.460938 -32.867188 16.113281 -32.226562 14.84375 -31.09375 C 14.320312 -30.625 13.867188 -30.148438 13.484375 -29.671875 C 12.640625 -28.535156 11.894531 -27.257812 11.25 -25.84375 C 10.613281 -24.425781 10.082031 -22.96875 9.65625 -21.46875 C 9.226562 -19.976562 8.921875 -18.460938 8.734375 -16.921875 C 8.546875 -15.390625 8.453125 -13.914062 8.453125 -12.5 L 8.453125 -6.109375 C 8.453125 -4.921875 8.507812 -3.972656 8.625 -3.265625 C 8.738281 -2.554688 8.890625 -2 9.078125 -1.59375 C 9.273438 -1.195312 9.46875 -0.9375 9.65625 -0.8125 C 9.84375 -0.695312 9.984375 -0.640625 10.078125 -0.640625 L 10.078125 0 L 1.84375 0 L 1.84375 -0.640625 C 1.9375 -0.640625 2.078125 -0.695312 2.265625 -0.8125 C 2.460938 -0.9375 2.640625 -1.195312 2.796875 -1.59375 C 2.960938 -2 3.117188 -2.554688 3.265625 -3.265625 C 3.410156 -3.972656 3.484375 -4.921875 3.484375 -6.109375 L 3.484375 -45.15625 C 3.335938 -46.382812 3.097656 -47.1875 2.765625 -47.5625 C 2.429688 -47.945312 2.171875 -48.140625 1.984375 -48.140625 L 1.78125 -48.78125 L 8.453125 -51.265625 L 8.453125 -18.609375 C 8.828125 -21.066406 9.414062 -23.253906 10.21875 -25.171875 C 11.03125 -27.085938 11.976562 -28.6875 13.0625 -29.96875 C 14.15625 -31.476562 15.445312 -32.625 16.9375 -33.40625 C 18.425781 -34.1875 20.117188 -34.457031 22.015625 -34.21875 C 24.472656 -33.84375 26.421875 -32.910156 27.859375 -31.421875 C 29.304688 -29.929688 30.429688 -28.117188 31.234375 -25.984375 C 31.753906 -24.609375 32.191406 -23.046875 32.546875 -21.296875 C 32.910156 -19.546875 33.207031 -17.710938 33.4375 -15.796875 C 33.675781 -13.878906 33.863281 -11.9375 34 -9.96875 C 34.144531 -8.007812 34.265625 -6.128906 34.359375 -4.328125 C 34.597656 -2.765625 34.867188 -1.757812 35.171875 -1.3125 C 35.484375 -0.863281 35.734375 -0.640625 35.921875 -0.640625 L 35.921875 0 L 27.765625 0 Z M 27.765625 -0.640625 "/></g></g></g><g fill="#fa8fb1" fill-opacity="1"><g transform="translate(208.581065, 221.666573)"><g><path d="M 1.78125 -31.671875 L 8.453125 -34.21875 L 8.453125 -6.109375 C 8.453125 -4.921875 8.507812 -3.972656 8.625 -3.265625 C 8.738281 -2.554688 8.890625 -2 9.078125 -1.59375 C 9.273438 -1.195312 9.46875 -0.9375 9.65625 -0.8125 C 9.84375 -0.695312 9.984375 -0.640625 10.078125 -0.640625 L 10.078125 0 L 1.84375 0 L 1.84375 -0.640625 C 1.988281 -0.640625 2.15625 -0.695312 2.34375 -0.8125 C 2.53125 -0.9375 2.707031 -1.195312 2.875 -1.59375 C 3.039062 -2 3.191406 -2.554688 3.328125 -3.265625 C 3.472656 -3.972656 3.546875 -4.921875 3.546875 -6.109375 L 3.546875 -28.046875 C 3.359375 -29.328125 3.097656 -30.15625 2.765625 -30.53125 C 2.429688 -30.90625 2.171875 -31.09375 1.984375 -31.09375 Z M 5.46875 -39.96875 C 4.519531 -39.96875 3.722656 -40.285156 3.078125 -40.921875 C 2.441406 -41.566406 2.125 -42.363281 2.125 -43.3125 C 2.125 -44.257812 2.441406 -45.050781 3.078125 -45.6875 C 3.722656 -46.320312 4.519531 -46.640625 5.46875 -46.640625 C 6.414062 -46.640625 7.207031 -46.320312 7.84375 -45.6875 C 8.476562 -45.050781 8.796875 -44.257812 8.796875 -43.3125 C 8.796875 -42.363281 8.476562 -41.566406 7.84375 -40.921875 C 7.207031 -40.285156 6.414062 -39.96875 5.46875 -39.96875 Z M 5.46875 -39.96875 "/></g></g></g><g fill="#fa8fb1" fill-opacity="1"><g transform="translate(220.436754, 221.666573)"><g><path d="M 32.09375 -24.140625 C 31.382812 -25.796875 30.425781 -27.320312 29.21875 -28.71875 C 28.007812 -30.113281 26.660156 -31.25 25.171875 -32.125 C 23.679688 -33 22.046875 -33.566406 20.265625 -33.828125 C 18.492188 -34.085938 16.6875 -33.910156 14.84375 -33.296875 C 12.851562 -32.773438 11.253906 -31.789062 10.046875 -30.34375 C 8.835938 -28.90625 7.945312 -27.25 7.375 -25.375 C 6.8125 -23.507812 6.539062 -21.554688 6.5625 -19.515625 C 6.59375 -17.484375 6.816406 -15.59375 7.234375 -13.84375 L 7.453125 -13.203125 C 8.304688 -10.367188 9.476562 -8.070312 10.96875 -6.3125 C 12.457031 -4.5625 14.101562 -3.269531 15.90625 -2.4375 C 17.707031 -1.613281 19.550781 -1.203125 21.4375 -1.203125 C 23.332031 -1.203125 25.109375 -1.546875 26.765625 -2.234375 C 28.421875 -2.921875 29.835938 -3.898438 31.015625 -5.171875 C 32.203125 -6.453125 32.988281 -7.945312 33.375 -9.65625 L 33.859375 -9.65625 C 33.441406 -7.53125 32.484375 -5.71875 30.984375 -4.21875 C 29.492188 -2.726562 27.707031 -1.601562 25.625 -0.84375 C 23.539062 -0.09375 21.304688 0.269531 18.921875 0.25 C 16.535156 0.226562 14.25 -0.253906 12.0625 -1.203125 C 9.882812 -2.148438 7.921875 -3.546875 6.171875 -5.390625 C 4.421875 -7.242188 3.164062 -9.632812 2.40625 -12.5625 C 1.789062 -14.882812 1.648438 -17.179688 1.984375 -19.453125 C 2.316406 -21.722656 3.039062 -23.816406 4.15625 -25.734375 C 5.269531 -27.648438 6.734375 -29.316406 8.546875 -30.734375 C 10.367188 -32.160156 12.441406 -33.179688 14.765625 -33.796875 C 16.941406 -34.359375 19.0625 -34.554688 21.125 -34.390625 C 23.1875 -34.234375 25.066406 -33.90625 26.765625 -33.40625 C 28.472656 -32.90625 29.914062 -32.359375 31.09375 -31.765625 C 32.28125 -31.179688 33.0625 -30.769531 33.4375 -30.53125 L 33.71875 -30.53125 L 32.734375 -24 Z M 32.09375 -24.140625 "/></g></g></g></svg>