<svg xmlns="http://www.w3.org/2000/svg" xmlns:xlink="http://www.w3.org/1999/xlink" width="500" zoomAndPan="magnify" viewBox="0 0 375 374.999991" height="500" preserveAspectRatio="xMidYMid meet" version="1.0"><defs><g/></defs><g fill="#fa8fb1" fill-opacity="1"><g transform="translate(147.491172, 73.957951)"><g><path d="M 13.15625 -61.609375 C 12.976562 -61.609375 12.769531 -61.519531 12.53125 -61.34375 C 12.300781 -61.164062 12.082031 -60.835938 11.875 -60.359375 C 11.664062 -59.890625 11.472656 -59.207031 11.296875 -58.3125 C 11.117188 -57.425781 11.03125 -56.242188 11.03125 -54.765625 L 11.03125 -7.640625 C 11.03125 -6.222656 11.117188 -5.050781 11.296875 -4.125 C 11.472656 -3.207031 11.664062 -2.507812 11.875 -2.03125 C 12.082031 -1.5625 12.300781 -1.238281 12.53125 -1.0625 C 12.769531 -0.882812 12.976562 -0.796875 13.15625 -0.796875 L 13.15625 0 L 2.671875 0 L 2.671875 -0.796875 C 2.785156 -0.796875 2.960938 -0.882812 3.203125 -1.0625 C 3.441406 -1.238281 3.660156 -1.5625 3.859375 -2.03125 C 4.066406 -2.507812 4.257812 -3.207031 4.4375 -4.125 C 4.625 -5.050781 4.71875 -6.222656 4.71875 -7.640625 L 4.71875 -54.765625 C 4.71875 -56.242188 4.625 -57.425781 4.4375 -58.3125 C 4.257812 -59.207031 4.066406 -59.890625 3.859375 -60.359375 C 3.660156 -60.835938 3.441406 -61.164062 3.203125 -61.34375 C 2.960938 -61.519531 2.785156 -61.609375 2.671875 -61.609375 L 2.671875 -62.40625 L 13.15625 -62.40625 Z M 13.15625 -61.609375 "/></g></g></g><g fill="#fa8fb1" fill-opacity="1"><g transform="translate(163.317344, 73.957951)"><g><path d="M 65.34375 -26.3125 L 65.34375 -7.640625 C 65.34375 -6.160156 65.414062 -4.972656 65.5625 -4.078125 C 65.71875 -3.191406 65.910156 -2.5 66.140625 -2 C 66.378906 -1.5 66.617188 -1.171875 66.859375 -1.015625 C 67.097656 -0.867188 67.273438 -0.796875 67.390625 -0.796875 L 67.390625 0 L 57.078125 0 L 57.078125 -0.796875 C 57.191406 -0.796875 57.367188 -0.867188 57.609375 -1.015625 C 57.847656 -1.171875 58.070312 -1.5 58.28125 -2 C 58.488281 -2.5 58.679688 -3.191406 58.859375 -4.078125 C 59.035156 -4.972656 59.125 -6.160156 59.125 -7.640625 L 59.125 -26.3125 C 59.125 -27.382812 59.0625 -28.675781 58.9375 -30.1875 C 58.820312 -31.695312 58.570312 -33.175781 58.1875 -34.625 C 57.800781 -36.082031 57.238281 -37.398438 56.5 -38.578125 C 55.757812 -39.765625 54.765625 -40.566406 53.515625 -40.984375 C 52.273438 -41.398438 51.0625 -41.382812 49.875 -40.9375 C 48.6875 -40.5 47.601562 -39.832031 46.625 -38.9375 C 45.65625 -38.050781 44.785156 -37.046875 44.015625 -35.921875 C 43.242188 -34.796875 42.617188 -33.726562 42.140625 -32.71875 C 40.835938 -29.875 39.800781 -26.390625 39.03125 -22.265625 C 38.257812 -18.148438 37.875 -13.273438 37.875 -7.640625 C 37.875 -6.160156 37.945312 -4.972656 38.09375 -4.078125 C 38.238281 -3.191406 38.429688 -2.5 38.671875 -2 C 38.910156 -1.5 39.144531 -1.171875 39.375 -1.015625 C 39.613281 -0.867188 39.796875 -0.796875 39.921875 -0.796875 L 39.921875 0 L 29.609375 0 L 29.609375 -0.796875 C 29.722656 -0.796875 29.898438 -0.867188 30.140625 -1.015625 C 30.378906 -1.171875 30.601562 -1.5 30.8125 -2 C 31.019531 -2.5 31.210938 -3.191406 31.390625 -4.078125 C 31.566406 -4.972656 31.65625 -6.160156 31.65625 -7.640625 L 31.65625 -26.3125 C 31.65625 -27.382812 31.59375 -28.675781 31.46875 -30.1875 C 31.351562 -31.695312 31.101562 -33.175781 30.71875 -34.625 C 30.332031 -36.082031 29.769531 -37.398438 29.03125 -38.578125 C 28.289062 -39.765625 27.296875 -40.566406 26.046875 -40.984375 C 24.804688 -41.398438 23.59375 -41.382812 22.40625 -40.9375 C 21.21875 -40.5 20.132812 -39.832031 19.15625 -38.9375 C 18.175781 -38.050781 17.300781 -37.046875 16.53125 -35.921875 C 15.757812 -34.796875 15.140625 -33.726562 14.671875 -32.71875 C 13.367188 -29.875 12.332031 -26.390625 11.5625 -22.265625 C 10.789062 -18.148438 10.40625 -13.273438 10.40625 -7.640625 C 10.40625 -6.160156 10.476562 -4.972656 10.625 -4.078125 C 10.769531 -3.191406 10.960938 -2.5 11.203125 -2 C 11.441406 -1.5 11.675781 -1.171875 11.90625 -1.015625 C 12.144531 -0.867188 12.328125 -0.796875 12.453125 -0.796875 L 12.453125 0 L 2.21875 0 L 2.21875 -0.796875 C 2.34375 -0.796875 2.519531 -0.867188 2.75 -1.015625 C 2.988281 -1.171875 3.210938 -1.5 3.421875 -2 C 3.628906 -2.5 3.820312 -3.191406 4 -4.078125 C 4.175781 -4.972656 4.265625 -6.160156 4.265625 -7.640625 L 4.265625 -35.203125 C 4.265625 -36.628906 4.175781 -37.800781 4 -38.71875 C 3.820312 -39.632812 3.628906 -40.328125 3.421875 -40.796875 C 3.210938 -41.273438 2.988281 -41.601562 2.75 -41.78125 C 2.519531 -41.957031 2.34375 -42.046875 2.21875 -42.046875 L 2.21875 -42.859375 L 10.40625 -42.859375 L 10.40625 -19.828125 C 10.820312 -22.554688 11.320312 -25.015625 11.90625 -27.203125 C 12.5 -29.398438 13.179688 -31.359375 13.953125 -33.078125 C 14.546875 -34.316406 15.226562 -35.53125 16 -36.71875 C 16.769531 -37.90625 17.671875 -38.988281 18.703125 -39.96875 C 19.742188 -40.945312 20.875 -41.726562 22.09375 -42.3125 C 23.3125 -42.90625 24.660156 -43.203125 26.140625 -43.203125 C 28.566406 -43.203125 30.550781 -42.695312 32.09375 -41.6875 C 33.632812 -40.6875 34.832031 -39.382812 35.6875 -37.78125 C 36.550781 -36.1875 37.128906 -34.378906 37.421875 -32.359375 C 37.722656 -30.347656 37.875 -28.332031 37.875 -26.3125 L 37.875 -19.828125 C 38.226562 -22.554688 38.703125 -25.015625 39.296875 -27.203125 C 39.890625 -29.398438 40.601562 -31.359375 41.4375 -33.078125 C 41.96875 -34.316406 42.628906 -35.53125 43.421875 -36.71875 C 44.222656 -37.90625 45.128906 -38.988281 46.140625 -39.96875 C 47.148438 -40.945312 48.273438 -41.726562 49.515625 -42.3125 C 50.765625 -42.90625 52.128906 -43.203125 53.609375 -43.203125 C 56.035156 -43.203125 58.003906 -42.695312 59.515625 -41.6875 C 61.035156 -40.6875 62.222656 -39.382812 63.078125 -37.78125 C 63.941406 -36.1875 64.535156 -34.378906 64.859375 -32.359375 C 65.179688 -30.347656 65.34375 -28.332031 65.34375 -26.3125 Z M 65.34375 -26.3125 "/></g></g></g><g fill="#fa8fb1" fill-opacity="1"><g transform="translate(5.44156, 266.195021)"><g><path d="M 8.21875 -49.921875 C 5.800781 -58.972656 5.226562 -67.960938 6.5 -76.890625 C 7.78125 -85.816406 10.585938 -94.039062 14.921875 -101.5625 C 19.253906 -109.09375 24.957031 -115.628906 32.03125 -121.171875 C 39.113281 -126.722656 47.179688 -130.707031 56.234375 -133.125 C 62.734375 -134.914062 69.234375 -135.679688 75.734375 -135.421875 C 82.242188 -135.171875 88.492188 -134.085938 94.484375 -132.171875 C 100.484375 -130.265625 106.128906 -127.554688 111.421875 -124.046875 C 116.710938 -120.535156 121.398438 -116.359375 125.484375 -111.515625 L 121.078125 -94.6875 L 119.359375 -94.6875 C 116.421875 -100.550781 112.785156 -106.128906 108.453125 -111.421875 C 104.117188 -116.710938 99.273438 -121.144531 93.921875 -124.71875 C 88.566406 -128.289062 82.734375 -130.773438 76.421875 -132.171875 C 70.109375 -133.578125 63.507812 -133.382812 56.625 -131.59375 C 48.332031 -129.425781 41.507812 -125.535156 36.15625 -119.921875 C 30.800781 -114.316406 26.71875 -107.847656 23.90625 -100.515625 C 21.101562 -93.179688 19.539062 -85.367188 19.21875 -77.078125 C 18.90625 -68.796875 19.769531 -60.957031 21.8125 -53.5625 C 24.613281 -42.84375 29.070312 -33.910156 35.1875 -26.765625 C 41.3125 -19.628906 48.164062 -14.210938 55.75 -10.515625 C 63.34375 -6.816406 71.25 -4.804688 79.46875 -4.484375 C 87.695312 -4.171875 95.445312 -5.546875 102.71875 -8.609375 C 109.988281 -11.671875 116.332031 -16.359375 121.75 -22.671875 C 127.164062 -28.984375 130.832031 -36.859375 132.75 -46.296875 L 134.28125 -45.90625 C 132.238281 -35.570312 128.125 -26.929688 121.9375 -19.984375 C 115.757812 -13.035156 108.492188 -7.867188 100.140625 -4.484375 C 91.785156 -1.109375 82.859375 0.507812 73.359375 0.375 C 63.859375 0.25 54.769531 -1.691406 46.09375 -5.453125 C 37.425781 -9.210938 29.679688 -14.789062 22.859375 -22.1875 C 16.035156 -29.582031 11.15625 -38.828125 8.21875 -49.921875 Z M 8.21875 -49.921875 "/></g></g></g><g fill="#fa8fb1" fill-opacity="1"><g transform="translate(145.453255, 266.195021)"><g><path d="M 74.796875 -1.71875 C 75.046875 -1.71875 75.425781 -1.875 75.9375 -2.1875 C 76.445312 -2.507812 76.925781 -3.179688 77.375 -4.203125 C 77.820312 -5.222656 78.234375 -6.691406 78.609375 -8.609375 C 78.992188 -10.523438 79.1875 -13.078125 79.1875 -16.265625 C 78.800781 -22.378906 78.289062 -28.878906 77.65625 -35.765625 C 77.019531 -42.648438 76.09375 -49.25 74.875 -55.5625 C 73.664062 -61.875 72.007812 -67.644531 69.90625 -72.875 C 67.800781 -78.101562 65.03125 -82.1875 61.59375 -85.125 C 58.28125 -87.925781 54.707031 -89.203125 50.875 -88.953125 C 47.050781 -88.566406 43.421875 -86.84375 39.984375 -83.78125 C 38.578125 -82.507812 37.363281 -81.234375 36.34375 -79.953125 C 34.050781 -76.890625 32.039062 -73.445312 30.3125 -69.625 C 28.59375 -65.800781 27.160156 -61.878906 26.015625 -57.859375 C 24.867188 -53.847656 24.039062 -49.769531 23.53125 -45.625 C 23.019531 -41.476562 22.765625 -37.492188 22.765625 -33.671875 L 22.765625 -16.453125 C 22.765625 -13.265625 22.921875 -10.710938 23.234375 -8.796875 C 23.554688 -6.890625 23.972656 -5.390625 24.484375 -4.296875 C 24.992188 -3.210938 25.503906 -2.507812 26.015625 -2.1875 C 26.523438 -1.875 26.90625 -1.71875 27.15625 -1.71875 L 27.15625 0 L 4.96875 0 L 4.96875 -1.71875 C 5.226562 -1.71875 5.613281 -1.875 6.125 -2.1875 C 6.632812 -2.507812 7.109375 -3.210938 7.546875 -4.296875 C 7.992188 -5.390625 8.410156 -6.890625 8.796875 -8.796875 C 9.179688 -10.710938 9.375 -13.265625 9.375 -16.453125 L 9.375 -121.65625 C 8.988281 -124.96875 8.347656 -127.132812 7.453125 -128.15625 C 6.566406 -129.175781 5.867188 -129.6875 5.359375 -129.6875 L 4.78125 -131.40625 L 22.765625 -138.109375 L 22.765625 -50.109375 C 23.785156 -56.742188 25.378906 -62.644531 27.546875 -67.8125 C 29.710938 -72.976562 32.265625 -77.28125 35.203125 -80.71875 C 38.128906 -84.800781 41.597656 -87.894531 45.609375 -90 C 49.628906 -92.101562 54.191406 -92.835938 59.296875 -92.203125 C 65.929688 -91.179688 71.191406 -88.660156 75.078125 -84.640625 C 78.960938 -80.617188 81.988281 -75.742188 84.15625 -70.015625 C 85.5625 -66.316406 86.742188 -62.109375 87.703125 -57.390625 C 88.660156 -52.671875 89.457031 -47.726562 90.09375 -42.5625 C 90.726562 -37.394531 91.238281 -32.164062 91.625 -26.875 C 92.007812 -21.582031 92.328125 -16.515625 92.578125 -11.671875 C 93.210938 -7.460938 93.941406 -4.75 94.765625 -3.53125 C 95.597656 -2.320312 96.269531 -1.71875 96.78125 -1.71875 L 96.78125 0 L 74.796875 0 Z M 74.796875 -1.71875 "/></g></g></g><g fill="#fa8fb1" fill-opacity="1"><g transform="translate(247.0191, 266.195021)"><g><path d="M 4.78125 -85.3125 L 22.765625 -92.203125 L 22.765625 -16.453125 C 22.765625 -13.265625 22.921875 -10.710938 23.234375 -8.796875 C 23.554688 -6.890625 23.972656 -5.390625 24.484375 -4.296875 C 24.992188 -3.210938 25.503906 -2.507812 26.015625 -2.1875 C 26.523438 -1.875 26.90625 -1.71875 27.15625 -1.71875 L 27.15625 0 L 4.96875 0 L 4.96875 -1.71875 C 5.351562 -1.71875 5.800781 -1.875 6.3125 -2.1875 C 6.820312 -2.507812 7.300781 -3.210938 7.75 -4.296875 C 8.195312 -5.390625 8.609375 -6.890625 8.984375 -8.796875 C 9.367188 -10.710938 9.5625 -13.265625 9.5625 -16.453125 L 9.5625 -75.5625 C 9.050781 -79 8.347656 -81.226562 7.453125 -82.25 C 6.566406 -83.269531 5.867188 -83.78125 5.359375 -83.78125 Z M 14.734375 -107.6875 C 12.179688 -107.6875 10.039062 -108.546875 8.3125 -110.265625 C 6.59375 -111.992188 5.734375 -114.132812 5.734375 -116.6875 C 5.734375 -119.226562 6.59375 -121.359375 8.3125 -123.078125 C 10.039062 -124.804688 12.179688 -125.671875 14.734375 -125.671875 C 17.273438 -125.671875 19.40625 -124.804688 21.125 -123.078125 C 22.851562 -121.359375 23.71875 -119.226562 23.71875 -116.6875 C 23.71875 -114.132812 22.851562 -111.992188 21.125 -110.265625 C 19.40625 -108.546875 17.273438 -107.6875 14.734375 -107.6875 Z M 14.734375 -107.6875 "/></g></g></g><g fill="#fa8fb1" fill-opacity="1"><g transform="translate(278.961651, 266.195021)"><g><path d="M 86.453125 -65.03125 C 84.546875 -69.5 81.960938 -73.613281 78.703125 -77.375 C 75.453125 -81.132812 71.816406 -84.191406 67.796875 -86.546875 C 63.785156 -88.910156 59.390625 -90.441406 54.609375 -91.140625 C 49.828125 -91.847656 44.953125 -91.375 39.984375 -89.71875 C 34.617188 -88.3125 30.3125 -85.660156 27.0625 -81.765625 C 23.8125 -77.878906 21.421875 -73.414062 19.890625 -68.375 C 18.359375 -63.34375 17.625 -58.082031 17.6875 -52.59375 C 17.757812 -47.113281 18.367188 -42.015625 19.515625 -37.296875 L 20.078125 -35.578125 C 22.378906 -27.921875 25.535156 -21.734375 29.546875 -17.015625 C 33.566406 -12.304688 38 -8.832031 42.84375 -6.59375 C 47.6875 -4.363281 52.660156 -3.25 57.765625 -3.25 C 62.867188 -3.25 67.648438 -4.171875 72.109375 -6.015625 C 76.578125 -7.867188 80.40625 -10.515625 83.59375 -13.953125 C 86.78125 -17.398438 88.882812 -21.421875 89.90625 -26.015625 L 91.234375 -26.015625 C 90.085938 -20.273438 87.503906 -15.394531 83.484375 -11.375 C 79.472656 -7.363281 74.660156 -4.335938 69.046875 -2.296875 C 63.441406 -0.253906 57.414062 0.734375 50.96875 0.671875 C 44.53125 0.609375 38.378906 -0.695312 32.515625 -3.25 C 26.648438 -5.800781 21.359375 -9.5625 16.640625 -14.53125 C 11.921875 -19.507812 8.539062 -25.953125 6.5 -33.859375 C 4.84375 -40.109375 4.457031 -46.289062 5.34375 -52.40625 C 6.238281 -58.53125 8.1875 -64.175781 11.1875 -69.34375 C 14.1875 -74.507812 18.140625 -79.003906 23.046875 -82.828125 C 27.953125 -86.648438 33.53125 -89.390625 39.78125 -91.046875 C 45.644531 -92.578125 51.351562 -93.117188 56.90625 -92.671875 C 62.457031 -92.222656 67.523438 -91.328125 72.109375 -89.984375 C 76.703125 -88.648438 80.59375 -87.1875 83.78125 -85.59375 C 86.96875 -84 89.070312 -82.882812 90.09375 -82.25 L 90.859375 -82.25 L 88.1875 -64.65625 Z M 86.453125 -65.03125 "/></g></g></g></svg>